<mxfile host="app.diagrams.net" modified="2024-04-05T07:16:48.214Z" agent="Mozilla/5.0 (Windows NT 10.0; Win64; x64) AppleWebKit/537.36 (KHTML, like Gecko) Chrome/123.0.0.0 Safari/537.36" version="24.2.2" etag="plwViEwy8w5XSDUQ6X2-" type="github">
  <diagram name="Page-1" id="x6rfFTsWHr-2fl6SuMOt">
    <mxGraphModel>
      <root>
        <mxCell id="0" />
        <mxCell id="1" parent="0" />
      </root>
    </mxGraphModel>
  </diagram>
</mxfile>
